# xmcd CD database file
#
# Track frame offsets:
#	150
#	32852
#	50921
#	73362
#	93874
#	113123
#	125367
#	140736
#	156440
#	169347
#	184179
#	203521
#	222912
#	243038
#	253374
#	263061
#	276765
#	294822
#
# Disc length: 4230 seconds
#
# Revision: 3
# Processed by: cddbd v1.4PL0 Copyright (c) Steve Scherf et al.
# Submitted via: CDex 1.40Release
#
DISCID=19108412
DTITLE=Mats Lindberg Bluesband - I
DYEAR=2002
DGENRE=Blues
TTITLE0=Too Hot To Handle
TTITLE1=Motor Head Baby
TTITLE2=Robbin Me Blind
TTITLE3=Boogie All Night
TTITLE4=Don''t Touch Me
TTITLE5=Hush Oh hush
TTITLE6=If I Should Lose You
TTITLE7=She Moves On
TTITLE8=The Hustlies On
TTITLE9=You Got Me
TTITLE10=Don't Bite The Hand That Feeds You
TTITLE11=Everything I Do Is Wrong
TTITLE12=How Long Baby
TTITLE13=She's My Baby
TTITLE14=Tell Me Why
TTITLE15=Trying To Make A Living
TTITLE16=West Helena Woman
TTITLE17=You're The Only One
EXTD=YEAR: 2002 ID3G: 0
EXTT0=
EXTT1=
EXTT2=
EXTT3=
EXTT4=
EXTT5=
EXTT6=
EXTT7=
EXTT8=
EXTT9=
EXTT10=
EXTT11=
EXTT12=
EXTT13=
EXTT14=
EXTT15=
EXTT16=
EXTT17=
PLAYORDER=
